<svg width="12" height="17" viewBox="0 0 12 17" fill="none" xmlns="http://www.w3.org/2000/svg">
<path d="M5.41626 16.8962L0.103768 11.5837C-0.0345893 11.4454 -0.0345893 11.2213 0.103768 11.0829C0.242125 10.9446 0.466246 10.9446 0.60457 11.0829L5.3125 15.7909L5.3125 0.354177C5.3125 0.158412 5.47092 0 5.66668 0C5.86245 0 6.02086 0.158412 6.02086 0.354177L6.02086 15.7909L10.7288 11.0829C10.8671 10.9446 11.0912 10.9446 11.2296 11.0829C11.2987 11.1521 11.3333 11.2427 11.3333 11.3333C11.3333 11.424 11.2987 11.5146 11.2296 11.5838L5.91707 16.8963C5.77874 17.0346 5.55462 17.0346 5.41626 16.8962Z" fill="#636363"/>
</svg>
