<svg width="11" height="8" viewBox="0 0 11 8" fill="none" xmlns="http://www.w3.org/2000/svg">
<path d="M10.824 0.54719L10.4637 0.186873C10.3505 0.0735639 10.1995 0.0112305 10.0384 0.0112305C9.8772 0.0112305 9.72615 0.0735639 9.61293 0.186873L4.54998 5.24973L1.38672 2.08639C1.2735 1.97326 1.12245 1.91083 0.961293 1.91083C0.800228 1.91083 0.649268 1.97326 0.535959 2.08639L0.175553 2.44661C0.0622439 2.5601 0 2.71124 0 2.87221C0 3.03328 0.0622439 3.18433 0.175553 3.29764L3.74707 6.86897C3.7518 6.87568 3.75681 6.88194 3.76263 6.88766L4.12303 7.24208C4.23625 7.35494 4.3873 7.41137 4.54971 7.41137H4.55159C4.71283 7.41137 4.86388 7.35494 4.97692 7.24208L5.33741 6.88453C5.34323 6.87881 5.34815 6.87407 5.3511 6.86924L10.8239 1.39696C11.0587 1.16274 11.0587 0.781678 10.824 0.54719Z" fill="white"/>
</svg>
