<svg width="15" height="14" viewBox="0 0 15 14" fill="none" xmlns="http://www.w3.org/2000/svg">
<path d="M14.3932 1.2552H5.46895C5.22359 0.526484 4.53434 0 3.72395 0C2.91355 0 2.2243 0.526484 1.97895 1.2552H0.585937C0.262344 1.2552 0 1.51754 0 1.84113C0 2.16473 0.262344 2.42707 0.585937 2.42707H1.97898C2.22434 3.15578 2.91359 3.68227 3.72398 3.68227C4.53437 3.68227 5.22363 3.15578 5.46898 2.42707H14.3932C14.7168 2.42707 14.9792 2.16473 14.9792 1.84113C14.9792 1.51754 14.7168 1.2552 14.3932 1.2552ZM3.72395 2.51039C3.35492 2.51039 3.05469 2.21016 3.05469 1.84113C3.05469 1.47211 3.35492 1.17188 3.72395 1.17188C4.09297 1.17188 4.3932 1.47211 4.3932 1.84113C4.3932 2.21016 4.09297 2.51039 3.72395 2.51039Z" fill="white"/>
<path d="M14.3932 6.27619H13.0002C12.7548 5.54748 12.0655 5.021 11.2552 5.021C10.4448 5.021 9.75555 5.54748 9.51019 6.27619H0.585937C0.262344 6.27619 0 6.53854 0 6.86213C0 7.18572 0.262344 7.44807 0.585937 7.44807H9.51019C9.75555 8.17678 10.4448 8.70326 11.2552 8.70326C12.0655 8.70326 12.7548 8.17678 13.0002 7.44807H14.3932C14.7168 7.44807 14.9792 7.18572 14.9792 6.86213C14.9792 6.53854 14.7168 6.27619 14.3932 6.27619ZM11.2552 7.53139C10.8862 7.53139 10.5859 7.23115 10.5859 6.86213C10.5859 6.49311 10.8862 6.19287 11.2552 6.19287C11.6242 6.19287 11.9245 6.49311 11.9245 6.86213C11.9245 7.23115 11.6242 7.53139 11.2552 7.53139Z" fill="white"/>
<path d="M14.3932 11.2967H7.97937C7.73402 10.568 7.04476 10.0415 6.23437 10.0415C5.42398 10.0415 4.73473 10.568 4.48938 11.2967H0.585937C0.262344 11.2967 0 11.559 0 11.8826C0 12.2062 0.262344 12.4686 0.585937 12.4686H4.48938C4.73473 13.1973 5.42398 13.7238 6.23437 13.7238C7.04476 13.7238 7.73402 13.1973 7.97937 12.4686H14.3932C14.7168 12.4686 14.9792 12.2062 14.9792 11.8826C14.9792 11.559 14.7168 11.2967 14.3932 11.2967ZM6.23437 12.5519C5.86535 12.5519 5.56512 12.2517 5.56512 11.8827C5.56512 11.5137 5.86535 11.2134 6.23437 11.2134C6.6034 11.2134 6.90363 11.5136 6.90363 11.8826C6.90363 12.2517 6.6034 12.5519 6.23437 12.5519Z" fill="white"/>
</svg>
