<svg width="15" height="15" viewBox="0 0 15 15" fill="none" xmlns="http://www.w3.org/2000/svg">
<g clip-path="url(#clip0)">
<path d="M14.5308 6.56184C14.272 6.56184 14.062 6.77183 14.062 7.03056V12.3384L10.3123 13.8383V8.90545C10.3123 8.64671 10.1023 8.43673 9.84356 8.43673C9.58483 8.43673 9.37484 8.64671 9.37484 8.90545V13.8373L5.62508 12.3374V4.911L7.79713 5.78001C8.0343 5.87563 8.30991 5.75939 8.40646 5.51847C8.50302 5.27848 8.38584 5.00569 8.14492 4.90913L5.33916 3.78607C5.33916 3.78607 5.33916 3.78607 5.33822 3.78607L5.33072 3.78326C5.21916 3.73826 5.09448 3.73826 4.98293 3.78326L4.97449 3.78607C4.97449 3.78607 4.97449 3.78607 4.97355 3.78607L0.294784 5.65815C0.117607 5.72939 0.000427246 5.90094 0.000427246 6.09312V14.5301C0.000427246 14.6857 0.0782349 14.831 0.206664 14.9182C0.285409 14.9716 0.376341 14.9988 0.469148 14.9988C0.528207 14.9988 0.587266 14.9876 0.643512 14.9651L5.15636 13.1605L9.66076 14.9623C9.66076 14.9623 9.66076 14.9623 9.6617 14.9623L9.67014 14.966C9.78169 15.011 9.90637 15.011 10.0179 14.966L10.0264 14.9623C10.0264 14.9623 10.0264 14.9623 10.0273 14.9623L14.7061 13.0911C14.8823 13.0189 14.9995 12.8474 14.9995 12.6552V7.03056C14.9995 6.77183 14.7895 6.56184 14.5308 6.56184ZM4.68763 12.3374L0.937869 13.8373V6.40997L4.68763 4.91007V12.3374Z" fill="black"/>
<path d="M11.7184 1.875C10.9432 1.875 10.3123 2.5059 10.3123 3.28116C10.3123 4.05643 10.9432 4.68732 11.7184 4.68732C12.4937 4.68732 13.1246 4.05643 13.1246 3.28116C13.1246 2.5059 12.4937 1.875 11.7184 1.875ZM11.7184 3.74988C11.4597 3.74988 11.2497 3.5399 11.2497 3.28116C11.2497 3.02243 11.4597 2.81244 11.7184 2.81244C11.9772 2.81244 12.1871 3.02243 12.1871 3.28116C12.1871 3.5399 11.9772 3.74988 11.7184 3.74988Z" fill="black"/>
<path d="M11.7184 0C9.90916 0 8.43738 1.47178 8.43738 3.28105C8.43738 4.96469 11.0697 7.94669 11.3697 8.28136C11.4588 8.37979 11.5853 8.43697 11.7184 8.43697C11.8515 8.43697 11.9781 8.37979 12.0672 8.28136C12.3671 7.94669 14.9995 4.96469 14.9995 3.28105C14.9995 1.47178 13.5277 0 11.7184 0ZM11.7184 7.25299C10.6947 6.039 9.37482 4.17536 9.37482 3.28105C9.37482 1.98925 10.4266 0.937442 11.7184 0.937442C13.0102 0.937442 14.062 1.98925 14.062 3.28105C14.062 4.17443 12.7421 6.039 11.7184 7.25299Z" fill="black"/>
</g>
<defs>
<clipPath id="clip0">
<rect width="15" height="15" fill="white"/>
</clipPath>
</defs>
</svg>
