<svg width="20" height="14" viewBox="0 0 20 14" fill="none" xmlns="http://www.w3.org/2000/svg">
<g clip-path="url(#clip0)">
<path d="M17.713 0.0131836H7.0006C6.36767 0.0131836 5.75803 0.278499 5.3272 0.741761L0.206372 6.24185C-0.0173582 6.48138 -0.0173582 6.85233 0.206372 7.09186L5.3272 12.5911C5.75803 13.0552 6.36767 13.3205 7.0006 13.3205H17.713C18.9747 13.3205 20.0002 12.295 20.0002 11.0333V2.30038C20.0002 1.03868 18.9747 0.0131836 17.713 0.0131836ZM16.2426 9.01144C16.5553 9.34829 16.5361 9.87476 16.1993 10.1875C16.0396 10.3364 15.8358 10.4095 15.6329 10.4095C15.4092 10.4095 15.1871 10.3206 15.0241 10.1442L12.9307 7.88864L10.8364 10.1434C10.6734 10.3197 10.4505 10.4087 10.2276 10.4087C10.0247 10.4087 9.82176 10.3355 9.66124 10.1866C9.32523 9.87393 9.30527 9.34745 9.61799 9.01061L11.7962 6.66686L9.61882 4.32227C9.3061 3.98543 9.32523 3.45895 9.66207 3.14623C9.99725 2.83351 10.5254 2.85181 10.8373 3.18948L12.9315 5.44424L15.0258 3.18948C15.3368 2.85181 15.865 2.83351 16.201 3.14623C16.537 3.45895 16.5569 3.98543 16.2442 4.32227L14.0651 6.66686L16.2426 9.01144Z" fill="#ADADAD"/>
</g>
<defs>
<clipPath id="clip0">
<rect width="20" height="13.3333" fill="white"/>
</clipPath>
</defs>
</svg>
