<svg width="234" height="26" viewBox="0 0 234 26" fill="none" xmlns="http://www.w3.org/2000/svg">
<g clip-path="url(#clip0)">
<path d="M40.4787 13.4362V12.9917C41.4744 12.8659 41.6166 12.7401 41.4074 12.153C41.1983 11.5659 40.8887 10.6769 40.5708 9.71235H37.2241C36.9731 10.4253 36.7304 11.0962 36.5296 11.7588C36.1782 12.7569 36.3205 12.9162 37.5085 13.0253V13.4698H34.0364V12.9917C35.032 12.8491 35.2495 12.7569 35.8017 11.3562L39.0564 3.02783L39.55 2.88525C40.5457 5.61945 41.5664 8.63042 42.6122 11.3898C43.1142 12.7569 43.3234 12.8995 44.3525 12.9917V13.4362H40.4787ZM38.9309 4.94848C38.3954 6.31558 37.8934 7.69106 37.383 8.99945H40.3198L38.9309 4.94848Z" fill="#8F8F8F"/>
<path d="M46.1431 13.4362V12.9916C47.3311 12.8994 47.4734 12.7987 47.4734 11.4065V5.091C47.4734 3.75745 47.3311 3.66519 46.1598 3.56455V3.12842H49.9332V3.57293C48.9041 3.66519 48.7618 3.71551 48.7618 5.08261V11.5658C48.7618 12.7904 48.8371 12.8491 49.724 12.8491H51.3973C52.3009 12.8491 52.3595 12.782 52.3595 11.5658V5.07423C52.3595 3.75745 52.234 3.66519 51.2049 3.56455V3.12842H54.8528V3.57293C53.7316 3.66519 53.6982 3.76584 53.6982 5.08261V11.5658C53.6982 12.7904 53.7735 12.8491 54.6604 12.8491H56.3337C57.2206 12.8491 57.2959 12.7736 57.2959 11.5658V5.07423C57.2959 3.7239 57.1704 3.66519 56.0158 3.56455V3.12842H59.9314V3.57293C58.7349 3.66519 58.6345 3.74906 58.6345 5.08261V11.4652C58.6345 12.8155 58.76 12.9078 60.0736 13.0084V13.4529L46.1431 13.4362Z" fill="#8F8F8F"/>
<path d="M68.3397 13.4362V12.9916C69.5528 12.8994 69.6951 12.8155 69.6951 11.4484V7.31358C69.6951 6.79358 69.6951 5.88777 69.7704 4.36132H69.7034L64.6834 12.6645C64.5753 12.8464 64.5257 13.0573 64.5412 13.2684V13.4445H61.822V12.9916C63.0185 12.8994 63.1523 12.782 63.1523 11.3142V5.01551C63.1523 3.76584 63.0268 3.66519 61.822 3.57293V3.12842H65.8297V3.57293C64.6416 3.66519 64.491 3.76584 64.491 4.99874V8.86519C64.491 9.59487 64.491 10.4168 64.4241 11.9936L69.3855 3.80777C69.4954 3.65633 69.5566 3.47496 69.5612 3.28777V3.12842H72.3891V3.57293C71.1927 3.66519 71.0505 3.79939 71.0505 5.20842V11.4568C71.0505 12.8239 71.1927 12.8994 72.3891 13V13.4445L68.3397 13.4362Z" fill="#8F8F8F"/>
<path d="M79.7769 13.4362V12.9916C80.7558 12.8826 80.8646 12.74 80.5634 12.2116C80.1701 11.5575 79.459 10.3749 78.4633 8.85681C77.702 10.031 77.0577 11.1297 76.5557 12.0607C76.1792 12.74 76.2545 12.8994 77.3171 13.0252V13.4697H73.6943V12.9916C74.0517 12.9962 74.4052 12.9167 74.7264 12.7593C75.0475 12.602 75.3274 12.3713 75.5434 12.0858C75.9199 11.5658 76.7063 10.4587 78.1119 8.29487C77.2753 6.96132 76.5474 5.77874 75.9952 4.94003C75.3342 3.90842 75.1083 3.73229 73.9872 3.60648V3.12842H77.8526V3.57293C76.9071 3.68197 76.8737 3.82455 77.1079 4.23552C77.6267 5.14132 78.2291 6.0639 78.9235 7.12068C79.5845 6.08906 80.0614 5.32584 80.4713 4.55422C80.8813 3.78261 80.7893 3.71551 79.7267 3.57293V3.12842H83.3411V3.57293C82.9016 3.55861 82.4665 3.66515 82.0831 3.881C81.6996 4.09685 81.3824 4.41378 81.1658 4.79745C80.8311 5.25874 80.3291 6.00519 79.2414 7.64068C80.0781 9.00777 80.9817 10.3833 81.7514 11.5407C82.5212 12.6981 82.8391 12.891 83.9352 13V13.4445L79.7769 13.4362Z" fill="#8F8F8F"/>
<path d="M93.8999 13.4362V12.9916C95.18 12.8658 95.2386 12.782 95.2302 11.1045L95.18 4.62971H95.1131L91.2644 13.3271H90.9298L87.4158 4.85616L87.1815 9.3768C87.1146 10.6768 87.1146 11.3729 87.1313 12.0103C87.1313 12.7736 87.5413 12.8491 88.5871 12.9916V13.4362H84.9058V12.9916C85.8177 12.8826 86.1357 12.7065 86.2444 12.0439C86.3532 11.3813 86.4201 10.7942 86.5456 9.14196L86.7464 5.83745C86.8887 3.77422 86.8134 3.70713 85.3743 3.56455V3.12842H87.968L91.5656 11.0626L95.1968 3.12842H97.8825V3.57293C96.4936 3.69874 96.3848 3.73229 96.4267 5.36777L96.5856 11.1129C96.6358 12.7903 96.6777 12.8742 98.0582 13V13.4445L93.8999 13.4362Z" fill="#8F8F8F"/>
<path d="M106.291 13.4362V12.9916C107.504 12.8994 107.647 12.8155 107.647 11.4484V7.31358C107.647 6.79358 107.647 5.88777 107.722 4.36132H107.663L102.643 12.6645C102.535 12.8464 102.485 13.0573 102.501 13.2684V13.4445H99.74V12.9916C100.936 12.8994 101.07 12.782 101.07 11.3142V5.01551C101.07 3.76584 100.945 3.66519 99.74 3.57293V3.12842H103.723V3.57293C102.534 3.66519 102.384 3.76584 102.384 4.99874V8.86519C102.384 9.59487 102.384 10.4168 102.317 11.9936L107.278 3.80777C107.388 3.65633 107.45 3.47496 107.454 3.28777V3.12842H110.282V3.57293C109.086 3.66519 108.943 3.79939 108.943 5.20842V11.4568C108.943 12.8239 109.086 12.8994 110.282 13V13.4445L106.291 13.4362Z" fill="#8F8F8F"/>
<path d="M123.016 3.57293C121.719 3.68197 121.594 3.76584 121.594 5.08261V11.4903C121.594 12.8239 121.719 12.8994 122.999 13V13.4445H118.766V12.9916C120.105 12.8994 120.247 12.8155 120.247 11.482V8.31164H114.867V11.482C114.867 12.7987 114.992 12.891 116.289 12.9916V13.4362H112.106V12.9916C113.369 12.8994 113.495 12.8155 113.495 11.482V5.07422C113.495 3.74068 113.369 3.68197 112.073 3.56455V3.12842H116.164V3.57293C114.967 3.68197 114.834 3.76584 114.834 5.08261V7.64906H120.213V5.07422C120.213 3.75745 120.088 3.68197 118.858 3.56455V3.12842H122.983L123.016 3.57293Z" fill="#8F8F8F"/>
<path d="M152.525 13.4362V12.9916C153.789 12.8994 153.914 12.8323 153.914 11.44V4.73035C153.914 3.80777 153.839 3.68197 152.969 3.68197H149.982C149.095 3.68197 149.003 3.80777 149.003 4.80584V11.44C149.003 12.8071 149.145 12.8994 150.392 12.9916V13.4362H146.284V12.9916C147.53 12.8994 147.656 12.8155 147.656 11.44V5.12455C147.656 3.73229 147.53 3.66519 146.3 3.57293V3.12842H156.625V3.57293C155.395 3.66519 155.253 3.74906 155.253 5.12455V11.44C155.253 12.8407 155.395 12.8994 156.642 12.9916V13.4362H152.525Z" fill="#8F8F8F"/>
<path d="M164.556 13.4362V12.9917C165.552 12.8659 165.694 12.7401 165.485 12.153C165.276 11.5659 164.966 10.6769 164.649 9.71235H161.302C161.051 10.4253 160.808 11.0962 160.607 11.7588C160.264 12.7569 160.407 12.9162 161.586 13.0253V13.4698H158.156V12.9917C159.152 12.8491 159.369 12.7569 159.921 11.3562L163.193 3.02783L163.686 2.88525C164.665 5.61106 165.728 8.63042 166.732 11.3898C167.234 12.7569 167.443 12.8995 168.472 12.9917V13.4362H164.556ZM163.034 4.94848C162.532 6.31558 162.021 7.69106 161.553 8.99106H164.456L163.034 4.94848Z" fill="#8F8F8F"/>
<path d="M174.212 3.12845C175.144 3.05915 176.073 3.29139 176.864 3.79103C177.204 4.05228 177.476 4.39277 177.655 4.78299C177.834 5.17321 177.916 5.60138 177.893 6.03039C177.894 6.86516 177.575 7.66844 177.002 8.27412C176.429 8.8798 175.646 9.24155 174.814 9.28458C174.577 9.30055 174.34 9.30055 174.103 9.28458L172.923 8.98265V11.4988C172.923 12.8491 173.066 12.9246 174.488 13.0252V13.4697H170.204V12.9917C171.467 12.8994 171.593 12.7736 171.593 11.4485V5.10781C171.593 3.71555 171.467 3.64845 170.296 3.56458V3.12845H174.212ZM172.923 8.45426C173.294 8.58505 173.685 8.65032 174.078 8.64716C175.107 8.64716 176.37 8.09361 176.37 6.07232C176.403 5.74801 176.365 5.42039 176.257 5.1127C176.15 4.80501 175.976 4.52478 175.749 4.29188C175.521 4.05897 175.245 3.8791 174.941 3.76501C174.636 3.65091 174.31 3.6054 173.986 3.63168C173.677 3.60078 173.367 3.66829 173.099 3.82458C172.973 3.93361 172.923 4.12652 172.923 4.57103V8.45426Z" fill="#8F8F8F"/>
<path d="M188.36 5.58583C188.286 5.08782 188.115 4.60914 187.858 4.1768C187.607 3.79938 187.339 3.68196 186.184 3.68196H185.063V11.4904C185.063 12.74 185.189 12.8994 186.686 13V13.4445H182.127V12.9916C183.566 12.8994 183.691 12.74 183.691 11.482V3.68196H182.712C181.399 3.68196 181.089 3.80777 180.88 4.1768C180.643 4.61878 180.474 5.0937 180.378 5.58583H179.918C179.993 4.6297 180.077 3.59809 180.11 2.72583H180.453C180.671 3.08648 180.88 3.12002 181.29 3.12002H187.531C187.694 3.144 187.86 3.11939 188.009 3.04929C188.158 2.97918 188.283 2.86668 188.368 2.72583H188.703C188.703 3.45551 188.778 4.61293 188.862 5.53551L188.36 5.58583Z" fill="#8F8F8F"/>
<path d="M201.278 3.57293C199.981 3.68197 199.856 3.76584 199.856 5.08261V11.4903C199.856 12.8239 199.981 12.8994 201.261 13V13.4445H197.028V12.9916C198.366 12.8994 198.509 12.8155 198.509 11.482V8.31164H193.12V11.482C193.12 12.7987 193.246 12.891 194.543 12.9916V13.4362H190.359V12.9916C191.623 12.8994 191.748 12.8155 191.748 11.482V5.07422C191.748 3.74068 191.623 3.68197 190.326 3.56455V3.12842H194.417V3.57293C193.221 3.68197 193.095 3.76584 193.095 5.08261V7.64906H198.483V5.07422C198.483 3.75745 198.358 3.68197 197.128 3.56455V3.12842H201.253L201.278 3.57293Z" fill="#8F8F8F"/>
<path d="M211.025 10.9285C210.933 11.4485 210.615 12.9414 210.473 13.4446H202.859V12.9917C204.298 12.8827 204.424 12.7569 204.424 11.4652V5.15815C204.424 3.73234 204.298 3.68202 203.068 3.57298V3.12847H210.113C210.113 3.52266 210.188 4.6046 210.239 5.40976L209.778 5.48524C209.693 5.00331 209.523 4.5404 209.276 4.11815C209.059 3.78266 208.632 3.67363 207.494 3.67363H206.298C205.804 3.67363 205.779 3.67363 205.779 4.18524V7.7917H207.227C208.649 7.7917 208.724 7.66589 208.9 6.60073H209.36V9.64524H208.9C208.691 8.5046 208.582 8.40395 207.227 8.40395H205.729V11.4065C205.729 12.153 205.821 12.4885 206.105 12.6898C206.638 12.8931 207.212 12.9651 207.779 12.8994C208.975 12.8994 209.452 12.7736 209.77 12.3627C210.115 11.9163 210.376 11.4103 210.54 10.8698L211.025 10.9285ZM206.248 1.63556C206.259 1.74081 206.248 1.84721 206.215 1.94788C206.183 2.04855 206.129 2.14123 206.059 2.2199C205.988 2.29857 205.902 2.36148 205.805 2.40454C205.709 2.44761 205.604 2.46986 205.499 2.46986C205.393 2.46986 205.289 2.44761 205.192 2.40454C205.096 2.36148 205.01 2.29857 204.939 2.2199C204.868 2.14123 204.815 2.04855 204.783 1.94788C204.75 1.84721 204.739 1.74081 204.75 1.63556C204.739 1.53032 204.75 1.42392 204.783 1.32325C204.815 1.22258 204.868 1.1299 204.939 1.05123C205.01 0.972557 205.096 0.909648 205.192 0.866585C205.289 0.823523 205.393 0.80127 205.499 0.80127C205.604 0.80127 205.709 0.823523 205.805 0.866585C205.902 0.909648 205.988 0.972557 206.059 1.05123C206.129 1.1299 206.183 1.22258 206.215 1.32325C206.248 1.42392 206.259 1.53032 206.248 1.63556ZM209.251 1.63556C209.254 1.73499 209.236 1.83386 209.199 1.92637C209.163 2.01888 209.109 2.10316 209.039 2.17426C208.97 2.24536 208.887 2.30185 208.796 2.34041C208.704 2.37897 208.606 2.39882 208.507 2.39879C208.303 2.39879 208.107 2.3175 207.962 2.17279C207.818 2.02808 207.737 1.83182 207.737 1.62718C207.737 1.42253 207.818 1.22627 207.962 1.08156C208.107 0.936859 208.303 0.855565 208.507 0.855565C208.605 0.856649 208.702 0.877316 208.793 0.916368C208.883 0.95542 208.965 1.01208 209.034 1.08307C209.102 1.15406 209.156 1.23796 209.192 1.32992C209.228 1.42188 209.245 1.52006 209.243 1.61879L209.251 1.63556Z" fill="#8F8F8F"/>
<path d="M216.555 3.12845C217.487 3.05915 218.417 3.29139 219.208 3.79103C219.548 4.05228 219.819 4.39277 219.999 4.78299C220.178 5.17321 220.26 5.60138 220.237 6.03039C220.238 6.86516 219.919 7.66844 219.346 8.27412C218.773 8.8798 217.989 9.24155 217.158 9.28458C216.921 9.30055 216.683 9.30055 216.447 9.28458L215.275 8.98265V11.4988C215.275 12.8491 215.418 12.9246 216.84 13.0252V13.4697H212.556V12.9917C213.819 12.8994 213.945 12.7736 213.945 11.4485V5.10781C213.945 3.71555 213.819 3.64845 212.648 3.56458V3.12845H216.555ZM215.275 8.46265C215.646 8.59327 216.037 8.65854 216.43 8.65555C217.459 8.65555 218.722 8.102 218.722 6.08071C218.755 5.75639 218.717 5.42878 218.609 5.12109C218.502 4.8134 218.328 4.53317 218.101 4.30026C217.873 4.06736 217.597 3.88749 217.293 3.77339C216.988 3.6593 216.662 3.61378 216.338 3.64007C216.029 3.60917 215.719 3.67668 215.451 3.83297C215.325 3.942 215.275 4.1349 215.275 4.57942V8.46265Z" fill="#8F8F8F"/>
<path d="M222.027 13.4362V12.9916C223.232 12.8994 223.358 12.7987 223.358 11.44V5.10777C223.358 3.75745 223.232 3.66519 222.061 3.56455V3.12842H226.085V3.57293C224.822 3.66519 224.68 3.73229 224.68 5.11616V7.37229C225.204 7.30198 225.732 7.27115 226.261 7.28003C228.771 7.28003 229.892 8.43745 229.892 10.14C229.932 10.6737 229.817 11.2075 229.562 11.6775C229.306 12.1476 228.922 12.5339 228.453 12.7904C227.501 13.2917 226.431 13.5263 225.357 13.4697L222.027 13.4362ZM224.68 11.4987C224.68 12.5136 224.839 12.8658 226.035 12.8658C227.231 12.8658 228.344 12.1697 228.344 10.291C228.344 8.41229 227.315 7.77487 225.725 7.77487C225.376 7.77839 225.027 7.80079 224.68 7.84197V11.4987ZM229.984 13.4362V12.9916C231.18 12.9162 231.314 12.74 231.314 11.4652V5.07422C231.314 3.83293 231.189 3.66519 229.984 3.56455V3.12842H234V3.57293C232.787 3.66519 232.661 3.82455 232.661 5.08261V11.4736C232.661 12.7568 232.787 12.9162 233.992 13V13.4445L229.984 13.4362Z" fill="#8F8F8F"/>
<path d="M37.4834 24.398V24.1464C38.0189 24.0793 38.0942 24.0122 37.9855 23.6767C37.8767 23.3412 37.7093 22.8883 37.5169 22.3683H35.7097C35.5758 22.7541 35.4503 23.1064 35.3416 23.467C35.1575 24.0038 35.2328 24.0877 35.8687 24.1464V24.3812H34.0364V24.1464C34.5718 24.0709 34.689 24.0206 34.9818 23.3077L36.7304 18.8457L36.9898 18.7703C37.5169 20.2296 38.0775 21.8483 38.6632 23.3245C38.9309 24.0541 39.0397 24.1632 39.5919 24.1632V24.398H37.4834ZM36.6468 19.8522L35.8519 22.0161H37.383L36.6468 19.8522Z" fill="#B9B9B9"/>
<path d="M44.846 20.1123C44.7992 19.8542 44.7057 19.6069 44.5699 19.3826C44.4528 19.2149 44.1851 19.1646 43.658 19.1646H43.1141C42.7962 19.1646 42.7711 19.1646 42.7711 19.4749V23.3078C42.7711 24.0375 42.838 24.0878 43.6078 24.1465V24.3729H41.332V24.1465C41.9763 24.0962 42.0432 24.0458 42.0432 23.3078V19.9529C42.0432 19.2149 41.9763 19.1813 41.3655 19.1142V18.8794H45.005C45.005 19.0304 45.0552 19.7181 45.097 20.0871L44.846 20.1123Z" fill="#B9B9B9"/>
<path d="M51.0374 23.0562C50.9872 23.3329 50.8199 24.1381 50.7446 24.3981H46.6616V24.1465C47.4314 24.0878 47.4983 24.0207 47.4983 23.3078V19.9529C47.4983 19.1897 47.4314 19.1646 46.7704 19.1142V18.8794H50.5438C50.5438 19.0891 50.5856 19.6678 50.6107 20.1039L50.3681 20.1458C50.323 19.8886 50.2323 19.6414 50.1003 19.4162C49.9832 19.24 49.7573 19.1813 49.1465 19.1813H48.5023C48.2429 19.1813 48.2262 19.1813 48.2262 19.4497V21.3787H49.021C49.7824 21.3787 49.8577 21.3117 49.933 20.7413H50.1756V22.3684H49.933C49.8242 21.7562 49.7657 21.7058 49.0294 21.7058H48.2597V23.3078C48.2597 23.7104 48.3099 23.8865 48.4605 23.9955C48.7406 24.1007 49.0416 24.1381 49.339 24.1046C49.9832 24.1046 50.2175 24.0375 50.4015 23.8194C50.5922 23.5686 50.7341 23.2841 50.8199 22.9807L51.0374 23.0562Z" fill="#B9B9B9"/>
<path d="M58.4923 19.1142C57.7978 19.1729 57.7309 19.2149 57.7309 19.9529V23.3833C57.7309 24.0962 57.7978 24.1381 58.4839 24.222V24.4568H56.2165V24.1465C56.9361 24.0962 57.0532 24.0542 57.0532 23.3078V21.6304H54.1165V23.3078C54.1165 24.0123 54.1834 24.0626 54.8779 24.1465V24.3813H52.6691V24.1465C53.3468 24.0962 53.4137 24.0542 53.4137 23.3078V19.9529C53.4137 19.24 53.3468 19.2065 52.6523 19.1142V18.8794H54.8444V19.1142C54.2002 19.1729 54.1332 19.2149 54.1332 19.9529V21.2949H57.0197V19.9529C57.0197 19.2484 56.9528 19.2065 56.2918 19.1142V18.8794H58.5006L58.4923 19.1142Z" fill="#B9B9B9"/>
<path d="M64.6752 20.1877C64.6365 19.9209 64.5455 19.6643 64.4075 19.4329C64.2736 19.2316 64.1314 19.1729 63.4955 19.1729H62.8931V23.3664C62.8931 24.0374 62.9601 24.1212 63.7298 24.2051V24.44H61.3035V24.1464C62.0732 24.0961 62.1401 24.0122 62.1401 23.3077V19.1142H61.6465C60.9437 19.1142 60.8098 19.1812 60.6676 19.3742C60.5413 19.611 60.4511 19.8654 60.3999 20.129H60.1572C60.1991 19.6174 60.2409 19.0638 60.2576 18.6025H60.425C60.5421 18.7954 60.6509 18.8122 60.8935 18.8122H64.2402C64.325 18.8221 64.411 18.8076 64.488 18.7705C64.565 18.7334 64.6299 18.6752 64.6752 18.6025H64.8509C64.8509 18.9967 64.8928 19.6174 64.9346 20.1038L64.6752 20.1877Z" fill="#B9B9B9"/>
<path d="M71.6364 22.9974C71.5078 23.4424 71.3456 23.877 71.1511 24.2974C70.6423 24.4304 70.1204 24.5063 69.5949 24.5238C69.2075 24.5591 68.8169 24.5124 68.4487 24.3867C68.0804 24.2611 67.7425 24.0593 67.457 23.7944C67.1715 23.5295 66.9446 23.2075 66.7912 22.8491C66.6377 22.4908 66.561 22.1041 66.5662 21.7141C66.5662 19.9277 67.9383 18.7451 69.8208 18.7451C70.3269 18.7636 70.8294 18.8395 71.3184 18.9716C71.3854 19.458 71.4356 19.8103 71.4858 20.2548L71.2348 20.3135C71.2091 20.1197 71.1453 19.9328 71.047 19.7639C70.9488 19.595 70.818 19.4473 70.6623 19.3295C70.5066 19.2117 70.3291 19.126 70.1401 19.0775C69.9511 19.0291 69.7544 19.0187 69.5614 19.0471C69.2498 19.0566 68.9436 19.1309 68.6621 19.2653C68.3807 19.3997 68.1301 19.5912 67.9264 19.8278C67.7227 20.0643 67.5702 20.3407 67.4786 20.6395C67.387 20.9382 67.3584 21.2528 67.3945 21.5632C67.3945 23.1483 68.3232 24.2387 69.6116 24.2387C70.4483 24.2387 70.9336 23.769 71.3519 22.9219L71.6364 22.9974Z" fill="#B9B9B9"/>
<path d="M77.9448 20.1877C77.9058 19.9209 77.8148 19.6644 77.677 19.4329C77.5432 19.2316 77.4009 19.1729 76.7651 19.1729H76.1627V23.3664C76.1627 24.0374 76.2296 24.1212 76.9993 24.2051V24.44H74.573V24.1464C75.3427 24.0961 75.4097 24.0122 75.4097 23.3077V19.1142H74.8826C74.1798 19.1142 74.0459 19.1812 73.9037 19.3742C73.7774 19.611 73.6871 19.8654 73.6359 20.129H73.3933C73.4351 19.6174 73.477 19.0638 73.4937 18.6025H73.661C73.7782 18.7954 73.8869 18.8122 74.1296 18.8122H77.4762C77.5611 18.8221 77.647 18.8076 77.724 18.7705C77.8011 18.7334 77.866 18.6752 77.9113 18.6025H78.087C78.087 18.9967 78.1288 19.6174 78.1707 20.1038L77.9448 20.1877Z" fill="#B9B9B9"/>
<path d="M82.6635 21.4206C83.5002 21.5464 84.1612 21.9238 84.1612 22.7709C84.1561 23.042 84.0749 23.3062 83.927 23.5331C83.779 23.7601 83.5702 23.9407 83.3245 24.0541C82.8045 24.308 82.2289 24.4263 81.6512 24.398H79.8188V24.1464C80.5468 24.096 80.597 24.0457 80.597 23.3077V19.9528C80.597 19.2483 80.597 19.198 79.8858 19.1141V18.8793H82.0611C82.5044 18.8379 82.9494 18.9377 83.3329 19.1644C83.4844 19.2744 83.6069 19.4197 83.69 19.5877C83.7731 19.7557 83.8142 19.9415 83.8098 20.1289C83.7942 20.439 83.6726 20.7342 83.4654 20.9649C83.2581 21.1955 82.9779 21.3476 82.6719 21.3954L82.6635 21.4206ZM81.7265 21.3199C82.6552 21.3199 83.0484 20.9425 83.0484 20.2296C83.0652 20.0761 83.0467 19.9207 82.9945 19.7754C82.9424 19.6301 82.8578 19.4986 82.7472 19.3911C82.6367 19.2835 82.5031 19.2026 82.3566 19.1546C82.2102 19.1066 82.0548 19.0928 81.9022 19.1141C81.7361 19.1045 81.5701 19.1332 81.4169 19.198C81.3416 19.2483 81.3081 19.3405 81.3081 19.6257V21.3031L81.7265 21.3199ZM81.3081 23.3077C81.3081 23.9199 81.4671 24.0793 82.0109 24.0793C82.1822 24.0978 82.3555 24.0787 82.5187 24.0234C82.6819 23.9681 82.8311 23.8779 82.9561 23.759C83.081 23.6401 83.1787 23.4954 83.2423 23.335C83.306 23.1745 83.334 23.002 83.3245 22.8296C83.3245 21.9909 82.7305 21.5715 81.7014 21.5715H81.3081V23.3077Z" fill="#B9B9B9"/>
<path d="M91.6577 21.5633C91.6821 21.9478 91.6266 22.3332 91.4948 22.6951C91.363 23.057 91.1577 23.3875 90.8919 23.6658C90.6261 23.9441 90.3056 24.164 89.9507 24.3117C89.5957 24.4595 89.214 24.5317 88.8298 24.524C88.4627 24.5253 88.099 24.4525 87.7606 24.31C87.4221 24.1674 87.1157 23.958 86.8596 23.6943C86.6035 23.4306 86.403 23.1179 86.2701 22.7748C86.1371 22.4318 86.0743 22.0654 86.0856 21.6975C86.0685 21.3138 86.1296 20.9306 86.2652 20.5713C86.4009 20.212 86.6081 19.8842 86.8743 19.6079C87.1405 19.3316 87.4601 19.1126 87.8136 18.9643C88.1671 18.816 88.547 18.7415 88.9302 18.7453C89.2955 18.7451 89.6572 18.8185 89.9937 18.9611C90.3302 19.1037 90.6346 19.3127 90.889 19.5755C91.1434 19.8384 91.3426 20.1498 91.4746 20.4912C91.6066 20.8327 91.6689 21.1973 91.6577 21.5633ZM86.9473 21.4543C86.9473 23.0479 87.784 24.2137 89.0139 24.2137C89.9509 24.2137 90.7959 23.4253 90.7959 21.7898C90.7959 19.9949 89.8673 19.0472 88.7545 19.0472C87.8091 19.0556 86.9473 19.8691 86.9473 21.4543Z" fill="#B9B9B9"/>
<path d="M96.5187 20.4057C96.5773 19.9696 96.6275 19.567 96.6944 19.1644C97.2633 18.9332 97.8645 18.7917 98.4765 18.7451C98.8359 18.728 99.1948 18.7869 99.53 18.9178C99.8652 19.0486 100.169 19.2486 100.422 19.5048C100.676 19.761 100.872 20.0676 101 20.4049C101.127 20.7421 101.183 21.1024 101.162 21.4625C101.162 24.0373 99.3132 24.5238 98.3594 24.5238C97.7475 24.5484 97.1492 24.3384 96.6861 23.9367C96.4795 23.7672 96.3473 23.5233 96.3179 23.2573C96.3108 23.1798 96.3337 23.1025 96.3821 23.0415C96.4304 22.9806 96.5003 22.9407 96.5773 22.9302C96.7028 22.9302 96.8199 23.0476 96.9036 23.2322C97.0218 23.5433 97.2372 23.8079 97.5177 23.9862C97.7981 24.1646 98.1286 24.2472 98.4598 24.2218C99.5056 24.2218 100.359 23.2825 100.367 21.7057L97.4223 21.7728V21.2947L100.359 21.3702C100.292 19.6928 99.4471 19.0638 98.4431 19.0638C97.4391 19.0638 97.0291 19.7934 96.7697 20.456L96.5187 20.4057Z" fill="#B9B9B9"/>
<path d="M105.388 24.398V24.1464C106.023 24.0961 106.09 24.0542 106.09 23.3077V19.5755C106.09 19.2064 106.09 19.1729 105.772 19.1729H104.886C104.542 19.1729 104.526 19.1729 104.526 19.4161C104.526 21.7142 104.183 23.2993 103.58 24.0877C103.363 24.3813 103.145 24.5154 102.97 24.5154C102.817 24.5139 102.667 24.4826 102.526 24.4232V24.2722C102.905 24.0415 103.21 23.7068 103.405 23.3077C103.945 22.1621 104.192 20.8996 104.124 19.6342C104.124 19.1897 103.982 19.1142 103.287 19.0722V18.8374H107.471V19.1142C106.827 19.1645 106.76 19.2316 106.76 19.8606V23.3077C106.76 24.0458 106.827 24.0877 107.471 24.1464V24.3813L105.388 24.398Z" fill="#B9B9B9"/>
<path d="M112.85 24.3981V24.1465C113.503 24.0962 113.578 24.0542 113.578 23.3078V21.1187C113.578 20.842 113.578 20.3555 113.62 19.542L110.943 23.9871C110.886 24.0833 110.86 24.1944 110.868 24.3058V24.3981H109.336V24.1465C109.981 24.0962 110.048 24.0375 110.048 23.2658V19.911C110.048 19.24 109.981 19.1897 109.336 19.1394V18.9046H111.47V19.1142C110.834 19.1646 110.75 19.2149 110.75 19.8775V21.9491C110.75 22.3433 110.75 22.7878 110.75 23.6265L113.403 19.24C113.461 19.1594 113.493 19.0628 113.495 18.9633V18.8794H115.009V19.1142C114.365 19.1646 114.289 19.2317 114.289 19.9529V23.3078C114.289 24.0375 114.365 24.0794 115.009 24.1465V24.3813L112.85 24.3981Z" fill="#B9B9B9"/>
<path d="M121.217 20.1877C121.179 19.9209 121.088 19.6643 120.95 19.4329C120.816 19.2316 120.673 19.1729 120.038 19.1729H119.435V23.3664C119.435 24.0374 119.502 24.1212 120.272 24.2051V24.44H117.845V24.1464C118.615 24.0961 118.682 24.0122 118.682 23.3077V19.1142H118.155C117.452 19.1142 117.318 19.1812 117.176 19.3742C117.05 19.611 116.96 19.8654 116.908 20.129H116.666C116.708 19.6174 116.749 19.0638 116.766 18.6025H116.934C117.051 18.7954 117.159 18.8122 117.402 18.8122H120.749C120.834 18.8221 120.92 18.8076 120.997 18.7705C121.074 18.7334 121.138 18.6752 121.184 18.6025H121.36C121.36 18.9967 121.401 19.6174 121.443 20.1038L121.217 20.1877Z" fill="#B9B9B9"/>
<path d="M128.948 19.1142C128.253 19.1729 128.187 19.2149 128.187 19.9529V23.3833C128.187 24.0962 128.253 24.1381 128.94 24.222V24.4568H126.672V24.1465C127.392 24.0962 127.467 24.0542 127.467 23.3078V21.6304H124.581V23.3078C124.581 24.0123 124.647 24.0626 125.342 24.1465V24.3813H123.116V24.1465C123.794 24.0962 123.861 24.0542 123.861 23.3078V19.9529C123.861 19.24 123.794 19.2065 123.1 19.1142V18.8794H125.292V19.1142C124.647 19.1729 124.581 19.2149 124.581 19.9529V21.2949H127.467V19.9529C127.467 19.2484 127.4 19.2065 126.739 19.1142V18.8794H128.948V19.1142Z" fill="#B9B9B9"/>
<path d="M136.26 21.5633C136.285 21.9478 136.229 22.3332 136.098 22.6951C135.966 23.057 135.76 23.3875 135.495 23.6658C135.229 23.9441 134.908 24.164 134.553 24.3117C134.198 24.4595 133.817 24.5317 133.433 24.524C133.065 24.5253 132.702 24.4525 132.363 24.31C132.025 24.1674 131.718 23.958 131.462 23.6943C131.206 23.4306 131.006 23.1179 130.873 22.7748C130.74 22.4318 130.677 22.0654 130.688 21.6975C130.671 21.3138 130.732 20.9306 130.868 20.5713C131.004 20.212 131.211 19.8842 131.477 19.6079C131.743 19.3316 132.063 19.1126 132.416 18.9643C132.77 18.816 133.15 18.7415 133.533 18.7453C133.898 18.7451 134.26 18.8185 134.596 18.9611C134.933 19.1037 135.237 19.3127 135.492 19.5755C135.746 19.8384 135.945 20.1498 136.077 20.4912C136.209 20.8327 136.272 21.1973 136.26 21.5633ZM131.55 21.4543C131.55 23.0479 132.387 24.2137 133.617 24.2137C134.554 24.2137 135.399 23.4253 135.399 21.7898C135.399 19.9949 134.47 19.0472 133.357 19.0472C132.412 19.0556 131.55 19.8691 131.55 21.4543Z" fill="#B9B9B9"/>
<path d="M141.607 24.3981V24.1465C142.259 24.0962 142.335 24.0543 142.335 23.3078V21.1188C142.335 20.842 142.335 20.3555 142.376 19.542L139.699 23.9872C139.642 24.0833 139.616 24.1944 139.624 24.3059V24.3981H138.135V24.1465C138.779 24.0962 138.846 24.0375 138.846 23.2659V19.911C138.846 19.2401 138.779 19.1897 138.135 19.1394V18.9046H140.268V19.1143C139.632 19.1646 139.548 19.2149 139.548 19.8775V21.9491C139.548 22.3433 139.548 22.7878 139.548 23.6265L142.201 19.2401C142.259 19.1594 142.291 19.0628 142.293 18.9633V18.8794H143.807V19.1143C143.163 19.1646 143.088 19.2317 143.088 19.953V23.3078C143.088 24.0375 143.163 24.0794 143.807 24.1465V24.3814L141.607 24.3981ZM139.933 17.7807C139.931 17.7334 139.938 17.6861 139.956 17.642C139.973 17.5979 140 17.5581 140.034 17.5254C140.068 17.4927 140.109 17.4679 140.154 17.4526C140.199 17.4373 140.246 17.4319 140.293 17.4368C140.336 17.4386 140.378 17.4495 140.416 17.4688C140.454 17.488 140.488 17.5152 140.515 17.5485C140.542 17.5819 140.561 17.6206 140.572 17.662C140.583 17.7035 140.585 17.7468 140.578 17.7891C140.578 18.0155 140.745 18.1414 141.029 18.1414C141.314 18.1414 141.481 18.0072 141.473 17.7891C141.465 17.7454 141.468 17.7007 141.48 17.6581C141.491 17.6154 141.512 17.5759 141.541 17.5422C141.57 17.5086 141.606 17.4818 141.646 17.4636C141.686 17.4453 141.73 17.4362 141.774 17.4368C141.817 17.4389 141.858 17.4496 141.897 17.4682C141.935 17.4867 141.969 17.5128 141.997 17.5449C142.025 17.5769 142.047 17.6143 142.06 17.6549C142.073 17.6954 142.079 17.7382 142.075 17.7807C142.075 18.1917 141.657 18.4685 141.029 18.4685C140.402 18.4685 139.958 18.1833 139.958 17.7807H139.933Z" fill="#B9B9B9"/>
<path d="M154.324 19.1142C153.63 19.1729 153.563 19.2149 153.563 19.9529V23.3833C153.563 24.0962 153.63 24.1381 154.316 24.222V24.4568H152.007V24.1465C152.726 24.0962 152.843 24.0542 152.843 23.3078V21.6304H149.957V23.3078C149.957 24.0123 150.024 24.0626 150.718 24.1465V24.3813H148.493V24.1465C149.17 24.0962 149.237 24.0542 149.237 23.3078V19.9529C149.237 19.24 149.17 19.2065 148.476 19.1142V18.8794H150.668V19.1142C150.024 19.1729 149.957 19.2149 149.957 19.9529V21.2949H152.843V19.9529C152.843 19.2484 152.776 19.2065 152.115 19.1142V18.8794H154.324V19.1142Z" fill="#B9B9B9"/>
<path d="M160.373 23.0562C160.323 23.3329 160.156 24.1381 160.08 24.3981H156.006V24.1465C156.776 24.0878 156.843 24.0207 156.843 23.3078V19.9529C156.843 19.1897 156.776 19.1646 156.115 19.1142V18.8794H159.888C159.888 19.0891 159.93 19.6678 159.955 20.1039L159.712 20.1458C159.667 19.8886 159.576 19.6415 159.445 19.4162C159.327 19.24 159.101 19.1813 158.491 19.1813H157.863C157.604 19.1813 157.587 19.1813 157.587 19.4497V21.3787H158.424C159.185 21.3787 159.26 21.3117 159.336 20.7413H159.537V22.3684H159.294C159.185 21.7562 159.127 21.7058 158.39 21.7058H157.554V23.3078C157.554 23.7104 157.604 23.8865 157.754 23.9955C158.035 24.1007 158.336 24.1381 158.633 24.1046C159.277 24.1046 159.511 24.0375 159.696 23.8194C159.883 23.5679 160.022 23.2834 160.105 22.9807L160.373 23.0562Z" fill="#B9B9B9"/>
<path d="M166.64 25.8237H166.389L166.288 25.0689C166.221 24.4986 166.096 24.3979 165.678 24.3979H163.017C162.532 24.3979 162.44 24.5405 162.297 25.1025L162.105 25.8237H161.854L161.896 24.0876H162.247C162.304 24.0963 162.363 24.0841 162.412 24.0534C162.461 24.0226 162.498 23.9753 162.515 23.9199C163.068 22.5702 163.325 21.1171 163.268 19.6592C163.268 19.2567 163.151 19.2147 162.783 19.156L162.448 19.1057V18.8708H166.765V19.1141C166.113 19.1644 166.046 19.2147 166.046 19.9528V23.6179C166.046 24.0205 166.088 24.0625 166.339 24.0625H166.832L166.64 25.8237ZM165.326 19.7599C165.326 19.2063 165.326 19.1728 165 19.1728H164.021C163.695 19.1728 163.67 19.1728 163.67 19.4412C163.704 20.9295 163.497 22.4137 163.059 23.836C163 24.0037 163.009 24.0876 163.218 24.0876H164.807C165.243 24.0876 165.335 24.0037 165.335 23.4586L165.326 19.7599Z" fill="#B9B9B9"/>
<path d="M171.401 21.4205C172.237 21.5463 172.898 21.9237 172.898 22.7708C172.893 23.0419 172.812 23.3061 172.664 23.5331C172.516 23.7601 172.307 23.9406 172.062 24.0541C171.542 24.308 170.966 24.4262 170.388 24.3979H168.522V24.1463C169.25 24.096 169.301 24.0457 169.301 23.3076V19.9528C169.301 19.2483 169.301 19.1979 168.589 19.1141V18.8792H170.765C171.208 18.8373 171.653 18.9371 172.036 19.1644C172.188 19.2744 172.311 19.4197 172.394 19.5877C172.477 19.7557 172.518 19.9414 172.513 20.1289C172.498 20.439 172.376 20.7342 172.169 20.9648C171.962 21.1955 171.681 21.3475 171.376 21.3954L171.401 21.4205ZM170.413 21.3199C171.342 21.3199 171.735 20.9425 171.735 20.2296C171.747 20.0804 171.726 19.9304 171.674 19.7904C171.621 19.6503 171.538 19.5236 171.431 19.4194C171.324 19.3152 171.195 19.2361 171.054 19.1876C170.913 19.1392 170.763 19.1227 170.614 19.1392C170.448 19.1296 170.282 19.1583 170.129 19.2231C170.054 19.2734 170.02 19.3657 170.02 19.6508V21.3283L170.413 21.3199ZM170.02 23.3328C170.02 23.945 170.179 24.1044 170.723 24.1044C170.898 24.131 171.077 24.118 171.246 24.0663C171.416 24.0147 171.572 23.9257 171.702 23.8059C171.833 23.6861 171.935 23.5385 172.002 23.3739C172.068 23.2094 172.097 23.032 172.087 22.8547C172.087 22.016 171.493 21.5967 170.464 21.5967H170.079L170.02 23.3328Z" fill="#B9B9B9"/>
<path d="M178.194 24.3981V24.1465C178.847 24.0962 178.922 24.0542 178.922 23.3078V21.1187C178.922 20.842 178.922 20.3555 178.964 19.542L176.27 23.9787C176.213 24.0749 176.187 24.186 176.195 24.2975V24.3897H174.705V24.1465C175.35 24.0962 175.416 24.0375 175.416 23.2658V19.911C175.416 19.24 175.35 19.1897 174.705 19.1394V18.9046H176.839V19.1142C176.203 19.1646 176.119 19.2149 176.119 19.8775V21.9491C176.119 22.3433 176.119 22.7878 176.119 23.6265L178.78 19.24C178.838 19.1591 178.87 19.0627 178.872 18.9633V18.8794H180.386V19.1142C179.742 19.1646 179.667 19.2317 179.667 19.9529V23.3078C179.667 24.0375 179.742 24.0794 180.386 24.1465V24.3813L178.194 24.3981Z" fill="#B9B9B9"/>
<path d="M189.012 24.3981C188.477 24.3981 188.243 24.1046 188 23.6181L187.398 22.402C187.054 21.6807 186.72 21.5633 186.184 21.5633V23.3078C186.184 24.0207 186.26 24.0878 186.904 24.1465V24.3813H184.754V24.1465C185.406 24.0962 185.473 24.0375 185.473 23.3078V21.6304C185.205 21.5951 184.933 21.6545 184.704 21.7984C184.475 21.9423 184.303 22.1616 184.218 22.4188C183.992 22.8884 183.758 23.4 183.641 23.6433C183.407 24.1297 183.156 24.4233 182.637 24.4233H181.934V24.1465C182.344 24.1465 182.587 24.0039 182.88 23.4504C183.172 22.8968 183.39 22.4859 183.549 22.2259C183.642 22.0282 183.775 21.8518 183.939 21.7075C184.103 21.5633 184.295 21.4543 184.503 21.3871C184.112 21.1367 183.817 20.7614 183.666 20.322C183.298 19.5588 183.147 19.3072 182.771 19.3072H182.603C182.528 19.3144 182.453 19.2922 182.394 19.2453C182.335 19.1985 182.296 19.1305 182.285 19.0555C182.285 18.8794 182.436 18.7117 182.729 18.7117C183.022 18.7117 183.44 18.9465 183.725 19.6007C183.893 20.0939 184.152 20.5516 184.486 20.951C184.619 21.0827 184.78 21.1822 184.956 21.2418C185.133 21.3014 185.322 21.3196 185.507 21.2949V19.8775C185.507 19.2065 185.44 19.1646 184.787 19.1142V18.8794H186.937V19.1142C186.293 19.1646 186.218 19.2065 186.218 19.8775V21.3284C186.405 21.352 186.596 21.3334 186.775 21.2739C186.955 21.2144 187.119 21.1156 187.255 20.9846C187.584 20.5888 187.834 20.1332 187.992 19.6426C188.284 18.9801 188.627 18.7452 189.004 18.7452C189.38 18.7452 189.439 18.913 189.439 19.0891C189.439 19.2652 189.288 19.3407 189.104 19.3407H188.929C188.552 19.3407 188.385 19.651 188.092 20.3388C187.935 20.7795 187.642 21.1586 187.255 21.4207C187.465 21.483 187.659 21.5903 187.824 21.7351C187.989 21.8799 188.12 22.0588 188.209 22.2594C188.36 22.5194 188.586 22.9723 188.87 23.4839C189.155 23.9955 189.414 24.1465 189.816 24.18V24.4149L189.012 24.3981Z" fill="#B9B9B9"/>
<path d="M194.844 24.3981V24.1465C195.497 24.0962 195.572 24.0542 195.572 23.3078V21.1187C195.572 20.842 195.572 20.3555 195.614 19.542L192.936 23.9871C192.88 24.0833 192.854 24.1944 192.861 24.3058V24.3981H191.33V24.1465C191.974 24.0962 192.041 24.0375 192.041 23.2658V19.911C192.041 19.24 191.974 19.1897 191.33 19.1394V18.9046H193.464V19.1142C192.828 19.1646 192.744 19.2149 192.744 19.8775V21.9491C192.744 22.3433 192.744 22.7878 192.744 23.6265L195.396 19.24C195.454 19.1591 195.486 19.0627 195.488 18.9633V18.8794H197.003V19.1142C196.358 19.1646 196.283 19.2317 196.283 19.9529V23.3078C196.283 24.0375 196.358 24.0794 197.003 24.1465V24.3813L194.844 24.3981Z" fill="#B9B9B9"/>
<path d="M203.503 24.398V24.1464C204.189 24.0793 204.223 24.0374 204.215 23.1316V19.6677L202.148 24.3226H201.981L200.09 19.7851L199.964 22.209C199.964 22.9051 199.964 23.2826 199.964 23.618C199.964 23.9535 200.182 24.0877 200.742 24.1464V24.3813H198.776V24.1464C199.27 24.0877 199.437 23.9955 199.496 23.6348C199.554 23.2742 199.588 22.9638 199.655 22.0832L199.772 20.3135C199.847 19.2064 199.772 19.1729 199.036 19.0974V18.8625H200.424L202.349 23.1148L204.298 18.8625H205.737V19.1142C204.993 19.1813 204.901 19.198 204.959 20.0703L205.043 23.1484C205.043 24.0458 205.093 24.0877 205.829 24.1632V24.398H203.503Z" fill="#B9B9B9"/>
<path d="M213.033 21.5633C213.057 21.9471 213.002 22.3317 212.871 22.6931C212.739 23.0544 212.535 23.3845 212.27 23.6626C212.005 23.9408 211.686 24.1609 211.332 24.3091C210.978 24.4574 210.597 24.5305 210.213 24.524C209.846 24.5264 209.481 24.4544 209.142 24.3124C208.802 24.1704 208.495 23.9612 208.238 23.6973C207.981 23.4335 207.78 23.1204 207.646 22.7768C207.513 22.4332 207.45 22.0661 207.461 21.6975C207.444 21.3138 207.505 20.9305 207.64 20.5713C207.776 20.212 207.983 19.8842 208.25 19.6079C208.516 19.3316 208.835 19.1126 209.189 18.9643C209.542 18.816 209.922 18.7415 210.305 18.7453C210.671 18.7451 211.032 18.8185 211.369 18.9611C211.705 19.1037 212.01 19.3127 212.264 19.5755C212.519 19.8383 212.718 20.1497 212.85 20.4912C212.982 20.8327 213.044 21.1973 213.033 21.5633ZM208.323 21.4543C208.323 23.0478 209.159 24.2136 210.389 24.2136C211.326 24.2136 212.171 23.4253 212.171 21.7898C212.171 19.9949 211.243 19.0472 210.13 19.0472C209.184 19.0556 208.323 19.8691 208.323 21.4543Z" fill="#B9B9B9"/>
<path d="M220.111 22.9974C219.983 23.4424 219.82 23.877 219.626 24.2974C219.117 24.4304 218.595 24.5064 218.07 24.5238C217.682 24.5591 217.292 24.5124 216.924 24.3867C216.555 24.2611 216.217 24.0593 215.932 23.7944C215.646 23.5295 215.419 23.2075 215.266 22.8491C215.113 22.4908 215.036 22.1041 215.041 21.7141C215.041 19.9277 216.413 18.7451 218.296 18.7451C218.802 18.7636 219.304 18.8395 219.793 18.9716C219.86 19.458 219.91 19.8103 219.961 20.2548L219.71 20.3135C219.684 20.1197 219.62 19.9328 219.522 19.7639C219.424 19.595 219.293 19.4473 219.137 19.3295C218.981 19.2117 218.804 19.126 218.615 19.0775C218.426 19.0291 218.229 19.0187 218.036 19.0471C217.725 19.0566 217.418 19.1309 217.137 19.2653C216.856 19.3997 216.605 19.5912 216.401 19.8278C216.198 20.0643 216.045 20.3407 215.953 20.6395C215.862 20.9382 215.833 21.2528 215.869 21.5632C215.869 23.1483 216.798 24.2387 218.087 24.2387C218.923 24.2387 219.408 23.769 219.827 22.9219L220.111 22.9974Z" fill="#B9B9B9"/>
<path d="M226.42 20.1877C226.38 19.921 226.29 19.6645 226.152 19.4329C226.018 19.2316 225.876 19.1729 225.24 19.1729H224.638V23.3664C224.638 24.0374 224.705 24.1212 225.474 24.2051V24.44H223.123V24.1464C223.893 24.0961 223.96 24.0122 223.96 23.3077V19.1142H223.433C222.73 19.1142 222.596 19.1812 222.454 19.3742C222.328 19.6109 222.237 19.8654 222.186 20.129H221.944C221.985 19.6174 222.027 19.0638 222.044 18.6025H222.211C222.328 18.7954 222.437 18.8122 222.68 18.8122H226.026C226.111 18.8221 226.197 18.8076 226.274 18.7705C226.351 18.7334 226.416 18.6752 226.462 18.6025H226.637C226.637 18.9967 226.679 19.6174 226.721 20.1038L226.42 20.1877Z" fill="#B9B9B9"/>
<path d="M231.85 24.3981V24.1465C232.502 24.0962 232.578 24.0542 232.578 23.3078V21.1187C232.578 20.842 232.578 20.3555 232.62 19.542L229.942 23.9871C229.886 24.0833 229.859 24.1944 229.867 24.3058V24.3981H228.378V24.1465C229.022 24.0962 229.089 24.0375 229.089 23.2658V19.911C229.089 19.24 229.022 19.1897 228.378 19.1394V18.9046H230.511V19.1142C229.875 19.1646 229.792 19.2149 229.792 19.8775V21.9491C229.792 22.3433 229.792 22.7878 229.792 23.6265L232.444 19.24C232.502 19.1591 232.534 19.0627 232.536 18.9633V18.8794H234V19.1142C233.356 19.1646 233.281 19.2317 233.281 19.9529V23.3078C233.281 24.0375 233.356 24.0794 234 24.1465V24.3813L231.85 24.3981Z" fill="#B9B9B9"/>
<path d="M137.206 13.4361L136.478 12.5974C135.549 13.2598 134.446 13.6358 133.307 13.6793C132.805 13.6919 132.305 13.6042 131.836 13.4214C131.368 13.2385 130.941 12.9641 130.579 12.6142C130.221 12.2811 129.936 11.8759 129.744 11.4249C129.552 10.974 129.458 10.4875 129.467 9.99739C129.467 8.31997 130.429 7.15975 132.353 6.51674C131.841 5.82496 131.533 5.00226 131.466 4.14319C131.458 3.80688 131.522 3.4727 131.653 3.16312C131.784 2.85353 131.98 2.57572 132.228 2.34836C132.749 1.86847 133.436 1.61251 134.144 1.63545C134.863 1.61774 135.564 1.86883 136.11 2.33997C136.352 2.54505 136.544 2.80272 136.671 3.09339C136.799 3.38407 136.859 3.70007 136.846 4.01739C136.846 5.29782 135.987 6.24835 134.269 6.869L134.562 7.35545C135.203 8.41222 136.087 9.71222 137.214 11.2555C137.685 10.5277 137.925 9.67362 137.9 8.80642C137.92 8.55232 137.895 8.29665 137.825 8.05158C137.775 7.95653 137.638 7.909 137.415 7.909H136.737H136.587V7.37223H140.201V7.85029H140.042C139.713 7.84512 139.384 7.8789 139.063 7.95093C139.007 7.99007 138.98 8.19975 138.98 8.57997C138.839 9.71784 138.341 10.7813 137.557 11.6161L137.95 12.0354L138.252 12.3542C138.43 12.5933 138.674 12.7742 138.954 12.8742L139.992 12.958H140.101V13.4361H137.206ZM136.11 12.2367C134.821 10.5545 133.631 8.79865 132.546 6.97803C132.061 7.22338 131.655 7.60043 131.374 8.06611C131.093 8.53179 130.948 9.06734 130.956 9.61158C130.943 10.0364 131.014 10.4596 131.165 10.8568C131.316 11.254 131.543 11.6175 131.834 11.9264C132.115 12.2287 132.456 12.468 132.835 12.6285C133.214 12.789 133.623 12.867 134.035 12.8574C134.772 12.8548 135.492 12.6393 136.11 12.2367ZM134.001 6.44126C134.448 6.14908 134.811 5.74599 135.056 5.27124C135.301 4.7965 135.419 4.26628 135.399 3.73223C135.399 2.67545 135 2.14706 134.202 2.14706C133.405 2.14706 132.992 2.67266 132.964 3.72384C133.032 4.50703 133.29 5.26155 133.717 5.92126L134.001 6.44126Z" fill="#B5A798"/>
</g>
<path d="M22.4861 17.2585C22.27 16.8391 22.0076 16.4451 21.7039 16.0837C21.2489 15.5529 20.7139 15.0962 20.118 14.7298C19.6881 14.4512 19.2342 14.2115 18.7617 14.0135C18.1468 13.764 17.5134 13.5628 16.8672 13.4117L16.2931 13.29L16.4653 13.2541L16.7165 13.1968C17.2896 13.0721 17.8532 12.907 18.4029 12.7025H18.4459C18.7688 12.5862 19.085 12.4523 19.3932 12.3014C19.9509 12.031 20.4737 11.6942 20.9504 11.2985C21.3944 10.9229 21.7854 10.4892 22.113 10.0091C22.34 9.67728 22.5301 9.32178 22.6799 8.94887C22.8522 8.5181 22.9726 8.06843 23.0387 7.6093C23.076 7.35068 23.0952 7.08977 23.0961 6.82848C23.0935 6.5135 23.0622 6.19941 23.0028 5.89006C22.9089 5.38786 22.7344 4.90408 22.4861 4.45736C22.2784 4.0672 22.0202 3.70594 21.7183 3.38284C21.3471 3.00509 20.9184 2.68837 20.4481 2.44442C19.8954 2.14929 19.2914 1.96208 18.6684 1.89283C18.4715 1.85532 18.2727 1.82901 18.0728 1.81403C17.6205 1.81599 17.1701 1.8713 16.7308 1.97879C16.3152 2.07584 15.9128 2.22256 15.5324 2.41576C15.1098 2.63122 14.7127 2.89312 14.3483 3.19658C13.8141 3.65024 13.3541 4.18439 12.9849 4.77972C12.7058 5.2088 12.4656 5.6619 12.2673 6.13362C12.0191 6.75224 11.8199 7.38936 11.6716 8.03911C11.6286 8.23014 11.5855 8.42355 11.5425 8.61935C11.4447 8.13594 11.3226 7.65776 11.1765 7.18665C11.0688 6.82848 10.9397 6.4703 10.8033 6.14795C10.6222 5.70653 10.4062 5.28016 10.1575 4.87284C10.0209 4.63983 9.86744 4.41716 9.69818 4.20664C9.39913 3.83425 9.06512 3.49123 8.7007 3.18226C8.33917 2.90011 7.94675 2.65979 7.53098 2.46591C7.07012 2.2099 6.57463 2.02171 6.05986 1.90715C5.71633 1.8464 5.3682 1.81524 5.01931 1.81403C4.01256 1.80893 3.02751 2.10592 2.1919 2.66649C1.7267 2.96481 1.32045 3.34605 0.993479 3.79115C0.796222 4.05552 0.625561 4.33865 0.483971 4.63645C0.299766 5.03595 0.167145 5.45719 0.0892842 5.89006C-0.0297614 6.53652 -0.0297614 7.19923 0.0892842 7.8457C0.166993 8.30658 0.307006 8.75481 0.505498 9.17811C0.627741 9.4445 0.76676 9.70291 0.921718 9.95176L0.957601 10.0091C1.07242 10.1738 1.19442 10.3386 1.32359 10.5105C1.79048 11.0815 2.35395 11.5664 2.98846 11.9432C3.42138 12.2251 3.88036 12.465 4.35911 12.6596C4.81121 12.8387 5.19872 12.9676 5.57188 13.0751C5.94504 13.1825 6.38996 13.29 6.81336 13.3759C6.3291 13.4735 5.85008 13.5955 5.37812 13.7413C5.01931 13.8487 4.66051 13.9777 4.33758 14.1138C3.89544 14.2947 3.46833 14.5103 3.06022 14.7585C2.82682 14.8948 2.60376 15.048 2.39284 15.2169C2.0197 15.5154 1.67606 15.8488 1.36664 16.2127C1.08379 16.5734 0.843035 16.9652 0.649025 17.3803C0.400376 17.8204 0.214395 18.293 0.0964564 18.7844C0.0356244 19.1273 0.00441489 19.4748 0.00316812 19.8231C-0.00406205 20.8273 0.290937 21.8105 0.849957 22.6455C1.15532 23.0949 1.53942 23.4856 1.98379 23.7988C2.24862 23.9957 2.53226 24.1661 2.83058 24.3074C3.22171 24.4889 3.63391 24.6213 4.05771 24.7014C4.70771 24.8205 5.37398 24.8205 6.02398 24.7014C6.4856 24.6235 6.93458 24.4837 7.35875 24.2859C7.62561 24.1639 7.88447 24.0251 8.13378 23.8704L8.19119 23.8346C8.35624 23.72 8.52129 23.5982 8.69352 23.4693C9.26473 23.0053 9.75043 22.4453 10.1288 21.8145C10.4112 21.3824 10.6516 20.9242 10.8464 20.4463C11.0258 19.995 11.1549 19.6082 11.2626 19.2428C11.3702 18.8775 11.4779 18.4333 11.564 18.0179L11.607 18.1898L11.6573 18.4333C11.7844 19.0057 11.9523 19.5683 12.1596 20.1168V20.1597C12.2763 20.4797 12.4104 20.7929 12.5615 21.0982C12.8327 21.6525 13.17 22.172 13.5661 22.6455C13.9424 23.0886 14.3769 23.479 14.8579 23.806C15.1907 24.0299 15.5468 24.2172 15.9199 24.3647C16.3516 24.5365 16.802 24.6567 17.2619 24.7229C17.5257 24.7606 17.7919 24.7798 18.0584 24.7802C18.3809 24.7813 18.7029 24.7525 19.02 24.6942C19.5227 24.6026 20.0073 24.4309 20.4553 24.1856C21.3277 23.7372 22.0359 23.0252 22.479 22.1512C22.7751 21.5997 22.9627 20.9966 23.0315 20.3747C23.1066 19.7179 23.0629 19.0531 22.9024 18.4119C22.8089 18.0126 22.6693 17.6255 22.4861 17.2585ZM11.9084 10.4747C11.9988 9.69502 12.1402 8.9221 12.3318 8.16089C12.4764 7.54998 12.6684 6.95122 12.9059 6.37002C13.0791 5.9344 13.2904 5.5149 13.5374 5.1164C13.8718 4.5777 14.2882 4.09433 14.7717 3.6837C15.0979 3.40609 15.4541 3.16581 15.8338 2.96735C16.1685 2.79644 16.5227 2.66656 16.8887 2.58052C17.277 2.49128 17.6744 2.448 18.0728 2.45158C18.2568 2.4406 18.4413 2.4406 18.6253 2.45158C19.1703 2.51115 19.6988 2.67405 20.1826 2.93154C20.5942 3.1435 20.9696 3.41912 21.2949 3.74817C21.5601 4.03266 21.7869 4.35055 21.9694 4.69376C22.1769 5.10031 22.3151 5.53849 22.3785 5.99035C22.4312 6.26904 22.4576 6.55204 22.4574 6.83564C22.4581 7.07532 22.4413 7.31473 22.4072 7.55199C22.347 7.95972 22.2386 8.35888 22.0843 8.74113C21.9533 9.06845 21.7873 9.38068 21.5891 9.67239C21.2935 10.1043 20.9411 10.4946 20.5414 10.8329C20.1016 11.1949 19.6197 11.5028 19.1062 11.7498C18.8189 11.8898 18.5242 12.0141 18.2235 12.1223H18.1804C17.6589 12.3175 17.1241 12.4755 16.5801 12.5951L16.3433 12.6452L16.1137 12.6954L15.884 12.7527C15.7549 12.7527 14.8148 12.9389 14.5062 12.9676C14.3196 12.9676 11.8726 12.9676 11.8726 12.9676C11.8726 12.9676 11.8726 11.3057 11.8726 10.8759C11.8869 10.7469 11.8941 10.6108 11.9084 10.4747ZM4.58874 12.0077C4.14871 11.8379 3.72581 11.6268 3.32574 11.3773C2.7542 11.0353 2.24669 10.5965 1.82592 10.0807C1.70392 9.92311 1.58911 9.75835 1.47429 9.60075L1.4384 9.54345C1.33794 9.40734 1.10112 8.92022 1.07959 8.8271C0.908035 8.45572 0.787348 8.06297 0.720786 7.65945C0.615614 7.08877 0.615614 6.50372 0.720786 5.93304C0.790491 5.56199 0.906202 5.20103 1.06524 4.85852C1.1926 4.60582 1.34399 4.36593 1.51734 4.14217C1.79826 3.76272 2.14598 3.43745 2.54354 3.18226C3.27603 2.70222 4.136 2.45267 5.01214 2.46591C5.325 2.4679 5.63711 2.49666 5.94504 2.55187C6.39588 2.6306 6.83322 2.77291 7.24393 2.97452C7.61754 3.15586 7.96908 3.37939 8.29165 3.64072C8.6246 3.92394 8.92977 4.23816 9.20303 4.57914C9.35144 4.7672 9.48575 4.96593 9.60489 5.17371C9.82642 5.54741 10.0184 5.93782 10.179 6.34136C10.3082 6.65655 10.4302 6.98608 10.5306 7.32992C10.6982 7.87284 10.8324 8.42545 10.9325 8.98469C11.0441 9.61539 11.1231 10.2514 11.1693 10.8902V12.9819H9.10256C8.69352 12.9819 8.28448 12.9246 7.87543 12.8673C7.14804 12.7678 6.42863 12.617 5.72258 12.416C5.39248 12.3372 5.02649 12.1796 4.58874 12.0077ZM11.0473 16.972C10.948 17.6982 10.797 18.4163 10.5952 19.121C10.4947 19.4721 10.3656 19.8374 10.1933 20.2672C10.023 20.704 9.81153 21.1238 9.56184 21.5208C9.21705 22.0919 8.77506 22.5986 8.25577 23.018C8.09789 23.1398 7.93285 23.2544 7.77497 23.369L7.71756 23.4048C7.58121 23.5051 7.09323 23.7343 6.99994 23.763C6.62791 23.9342 6.23447 24.0547 5.83023 24.1212C5.25848 24.2255 4.67251 24.2255 4.10076 24.1212C3.72671 24.0517 3.36273 23.9362 3.01716 23.7773C2.76408 23.6501 2.52378 23.499 2.29954 23.326C1.91932 23.0457 1.59346 22.6986 1.33794 22.3016C0.856237 21.5708 0.606174 20.7121 0.62032 19.8374C0.622142 19.5251 0.650955 19.2135 0.706436 18.9061C0.785214 18.4561 0.927773 18.0195 1.12983 17.6095C1.31401 17.2386 1.54035 16.8901 1.80439 16.5708C2.08804 16.2384 2.40283 15.9338 2.74447 15.6611C2.93289 15.513 3.13197 15.3789 3.34009 15.2599C3.72083 15.0307 4.11916 14.8318 4.53133 14.6653C4.84709 14.5364 5.17719 14.4218 5.52165 14.3143C6.0656 14.1473 6.61918 14.0134 7.17934 13.9132C7.80879 13.7841 8.44673 13.7003 9.08821 13.6625H11.1837V15.7184C11.1724 16.1377 11.1389 16.5562 11.0832 16.972H11.0473ZM22.3785 20.3388C22.3179 20.8804 22.1548 21.4055 21.8977 21.8862C21.6832 22.2975 21.4046 22.6723 21.0724 22.9965C20.7871 23.2588 20.4687 23.4828 20.1252 23.6627C19.7311 23.8783 19.3045 24.0283 18.8622 24.1068C18.583 24.1592 18.2995 24.1856 18.0154 24.1856C17.7753 24.1861 17.5355 24.1693 17.2978 24.1355C16.8869 24.0758 16.4846 23.9675 16.0993 23.8131C15.769 23.6827 15.4538 23.517 15.1593 23.3189C14.7265 23.0239 14.3355 22.6721 13.9967 22.273C13.6339 21.8341 13.3255 21.353 13.0782 20.8403C12.9381 20.5534 12.8135 20.2593 12.705 19.9592V19.9162C12.5093 19.3956 12.351 18.8618 12.2314 18.3187L12.1811 18.0823L12.1309 17.8531L12.0735 17.6239C11.941 16.9915 11.8594 16.3495 11.8295 15.7041C11.8295 15.5178 11.8295 13.6338 11.8295 13.6338C11.8295 13.6338 14.3483 13.6338 14.4775 13.6338C15.2246 13.7122 15.9655 13.8415 16.695 14.0206C17.3091 14.1625 17.9113 14.3517 18.4962 14.5865C18.9325 14.7596 19.3527 14.9705 19.752 15.2169C20.2911 15.5485 20.7753 15.9618 21.1872 16.4419C21.4653 16.7674 21.706 17.1231 21.9049 17.5021C22.0757 17.8339 22.2058 18.1851 22.2924 18.548C22.4461 19.1318 22.4899 19.739 22.4215 20.3388H22.3785Z" fill="#7C7C7C" fill-opacity="0.3"/>
<path d="M11.3802 9.01563C11.2978 9.01435 11.2188 8.98393 11.1578 8.93008C11.0968 8.87622 11.0582 8.80262 11.049 8.72305L10.3415 2.14001C10.3423 2.05899 10.3738 1.98109 10.43 1.92124C10.4862 1.86139 10.5632 1.82379 10.6461 1.81564C10.7291 1.80748 10.8122 1.82935 10.8796 1.87706C10.947 1.92476 10.9939 1.99495 11.0114 2.07418L11.7189 8.65722C11.7273 8.74344 11.7004 8.82941 11.6441 8.8965C11.5877 8.9636 11.5064 9.0064 11.4178 9.01563H11.3802Z" fill="#7C7C7C" fill-opacity="0.3"/>
<path d="M11.6783 9.01416C11.5897 9.00492 11.5084 8.96213 11.452 8.89505C11.3957 8.82798 11.3688 8.74202 11.3772 8.65582L12.0847 2.07413C12.1022 1.99491 12.1491 1.92474 12.2165 1.87705C12.2839 1.82935 12.367 1.80748 12.45 1.81564C12.5329 1.82379 12.6099 1.86138 12.6661 1.92122C12.7223 1.98106 12.7538 2.05894 12.7546 2.13994L12.0471 8.72164C12.0376 8.80773 11.9935 8.88672 11.9245 8.94148C11.8555 8.99623 11.767 9.02235 11.6783 9.01416Z" fill="#7C7C7C" fill-opacity="0.3"/>
<defs>
<clipPath id="clip0">
<rect width="199.964" height="26" fill="white" transform="translate(34.0364)"/>
</clipPath>
</defs>
</svg>
