<svg width="9" height="13" viewBox="0 0 9 13" fill="none" xmlns="http://www.w3.org/2000/svg">
<path d="M4.14185 12.9206L0.079352 8.85815C-0.0264507 8.75235 -0.0264507 8.58096 0.079352 8.47518C0.185155 8.36938 0.356541 8.36938 0.462319 8.47518L4.0625 12.0754L4.0625 0.270842C4.0625 0.121139 4.18364 0 4.33335 0C4.48305 0 4.60419 0.121139 4.60419 0.270842L4.60419 12.0754L8.20435 8.47518C8.31015 8.36938 8.48153 8.36938 8.58731 8.47518C8.6402 8.52807 8.66666 8.59739 8.66666 8.66668C8.66666 8.73597 8.6402 8.80526 8.58731 8.85817L4.52482 12.9207C4.41904 13.0264 4.24765 13.0264 4.14185 12.9206Z" fill="black"/>
</svg>
