<svg width="32" height="22" viewBox="0 0 32 22" fill="none" xmlns="http://www.w3.org/2000/svg">
<g clip-path="url(#clip0)">
<path d="M31.8047 10.2163L21.8047 0.216324C21.5442 -0.0441132 21.1224 -0.0441132 20.862 0.216324C20.6015 0.476761 20.6015 0.898636 20.862 1.15901L29.724 10.021H0.666687C0.298187 10.021 0 10.3192 0 10.6877C0 11.0562 0.298187 11.3544 0.666687 11.3544H29.724L20.862 20.2163C20.6015 20.4767 20.6015 20.8986 20.862 21.159C20.9922 21.2892 21.1628 21.3543 21.3334 21.3543C21.5039 21.3543 21.6745 21.2892 21.8047 21.159L31.8047 11.159C32.0651 10.8986 32.0651 10.4768 31.8047 10.2163Z" fill="black"/>
</g>
<defs>
<clipPath id="clip0">
<rect width="32" height="21.375" fill="white"/>
</clipPath>
</defs>
</svg>
