<svg width="32" height="22" viewBox="0 0 32 22" fill="none" xmlns="http://www.w3.org/2000/svg">
<g clip-path="url(#clip0)">
<path d="M0.195335 10.2163L10.1953 0.216324C10.4558 -0.0441132 10.8776 -0.0441132 11.138 0.216324C11.3985 0.476761 11.3985 0.898636 11.138 1.15901L2.27602 10.021H31.3333C31.7018 10.021 32 10.3192 32 10.6877C32 11.0562 31.7018 11.3544 31.3333 11.3544H2.27602L11.138 20.2163C11.3985 20.4767 11.3985 20.8986 11.138 21.159C11.0078 21.2892 10.8372 21.3543 10.6666 21.3543C10.4961 21.3543 10.3255 21.2892 10.1953 21.159L0.195272 11.159C-0.0651016 10.8986 -0.0651016 10.4768 0.195335 10.2163Z" fill="black"/>
</g>
<defs>
<clipPath id="clip0">
<rect width="32" height="21.375" fill="white" transform="matrix(-1 0 0 1 32 0)"/>
</clipPath>
</defs>
</svg>
