<svg width="23" height="23" viewBox="0 0 23 23" fill="none" xmlns="http://www.w3.org/2000/svg">
<path d="M18.1699 14.2419C17.6993 13.7518 17.1315 13.4897 16.5299 13.4897C15.933 13.4897 15.3604 13.7469 14.8704 14.237L13.337 15.7655C13.2109 15.6976 13.0847 15.6345 12.9634 15.5714C12.7887 15.4841 12.6237 15.4016 12.483 15.3142C11.0467 14.402 9.74146 13.2132 8.48956 11.675C7.88302 10.9083 7.47542 10.263 7.17943 9.60789C7.57732 9.24397 7.9461 8.86549 8.30517 8.50156C8.44103 8.3657 8.5769 8.22498 8.71276 8.08912C9.73175 7.07013 9.73175 5.7503 8.71276 4.73131L7.38808 3.40663C7.23766 3.25621 7.08238 3.10093 6.93681 2.94566C6.64567 2.64481 6.33998 2.33426 6.02458 2.04313C5.5539 1.5773 4.99103 1.32983 4.39905 1.32983C3.80707 1.32983 3.23449 1.5773 2.74926 2.04313C2.74441 2.04798 2.74441 2.04798 2.73956 2.05283L1.08977 3.71718C0.468669 4.33827 0.114449 5.09523 0.0368123 5.9735C-0.0796434 7.39038 0.337656 8.71021 0.657909 9.57393C1.44399 11.6944 2.61825 13.6596 4.36994 15.7655C6.49525 18.3032 9.05243 20.3073 11.9735 21.7193C13.0896 22.2482 14.5792 22.8741 16.2436 22.9809C16.3455 22.9857 16.4522 22.9906 16.5493 22.9906C17.6701 22.9906 18.6115 22.5878 19.3491 21.7872C19.3539 21.7775 19.3636 21.7727 19.3685 21.763C19.6208 21.4573 19.9119 21.1807 20.2176 20.8847C20.4263 20.6857 20.6398 20.4771 20.8484 20.2587C21.3288 19.7589 21.5811 19.1767 21.5811 18.5798C21.5811 17.9781 21.3239 17.4007 20.8339 16.9155L18.1699 14.2419ZM19.9071 19.3514C19.9022 19.3514 19.9022 19.3562 19.9071 19.3514C19.7178 19.5551 19.5237 19.7395 19.3151 19.9433C18.9997 20.2442 18.6794 20.5596 18.3786 20.9138C17.8885 21.4378 17.3111 21.6853 16.5541 21.6853C16.4813 21.6853 16.4037 21.6853 16.3309 21.6805C14.8898 21.5883 13.5505 21.0254 12.5461 20.545C9.79968 19.2155 7.38808 17.3279 5.38407 14.9357C3.72943 12.9414 2.6231 11.0976 1.8904 9.11781C1.43913 7.90958 1.27415 6.96823 1.34694 6.08026C1.39546 5.51253 1.61382 5.04186 2.01656 4.63912L3.6712 2.98448C3.90897 2.76127 4.16129 2.63996 4.40875 2.63996C4.71445 2.63996 4.96192 2.82435 5.11719 2.97962C5.12205 2.98448 5.1269 2.98933 5.13175 2.99418C5.42774 3.27076 5.70918 3.55705 6.00517 3.86275C6.15559 4.01802 6.31086 4.17329 6.46614 4.33342L7.79082 5.6581C8.30517 6.17245 8.30517 6.64798 7.79082 7.16232C7.6501 7.30304 7.51424 7.44376 7.37352 7.57962C6.96593 7.99692 6.57774 8.38511 6.15559 8.76359C6.14589 8.77329 6.13618 8.77815 6.13133 8.78785C5.71403 9.20515 5.79167 9.61274 5.87901 9.88933C5.88386 9.90388 5.88871 9.91844 5.89356 9.933C6.23808 10.7676 6.72331 11.5537 7.46086 12.4902L7.46572 12.495C8.80496 14.1448 10.217 15.4307 11.7746 16.4157C11.9735 16.5419 12.1773 16.6438 12.3714 16.7408C12.5461 16.8281 12.7111 16.9106 12.8518 16.998C12.8712 17.0077 12.8906 17.0222 12.91 17.0319C13.075 17.1144 13.2303 17.1533 13.3904 17.1533C13.7931 17.1533 14.0455 16.9009 14.128 16.8184L15.7874 15.1589C15.9524 14.994 16.2145 14.795 16.5201 14.795C16.821 14.795 17.0685 14.9843 17.2189 15.1492C17.2237 15.1541 17.2237 15.1541 17.2286 15.1589L19.9022 17.8326C20.402 18.3275 20.402 18.837 19.9071 19.3514Z" fill="white"/>
<path d="M12.4247 5.46892C13.696 5.68242 14.8509 6.28411 15.7728 7.20605C16.6948 8.12799 17.2916 9.28285 17.5099 10.5542C17.5633 10.8744 17.8399 11.0976 18.1553 11.0976C18.1941 11.0976 18.2281 11.0928 18.2669 11.0879C18.626 11.0297 18.8637 10.69 18.8055 10.3309C18.5435 8.79276 17.8156 7.39044 16.7045 6.27926C15.5933 5.16808 14.191 4.44023 12.6528 4.1782C12.2937 4.11998 11.9589 4.35774 11.8958 4.71196C11.8327 5.06618 12.0656 5.41069 12.4247 5.46892Z" fill="white"/>
<path d="M22.9638 10.1416C22.532 7.60872 21.3383 5.30387 19.5041 3.46969C17.6699 1.63551 15.3651 0.441843 12.8322 0.0099868C12.4779 -0.0530934 12.1431 0.189523 12.0801 0.543742C12.0218 0.902814 12.2596 1.23762 12.6187 1.3007C14.8798 1.68404 16.9421 2.7564 18.5822 4.39163C20.2223 6.03172 21.2898 8.09396 21.6731 10.3551C21.7265 10.6754 22.0031 10.8986 22.3185 10.8986C22.3573 10.8986 22.3913 10.8937 22.4301 10.8889C22.7843 10.8355 23.0269 10.4959 22.9638 10.1416Z" fill="white"/>
</svg>
